<svg width="181" height="43" viewBox="0 0 181 43" fill="none" xmlns="http://www.w3.org/2000/svg">
<path fill-rule="evenodd" clip-rule="evenodd" d="M48.6847 28.7688H38.7267L36.5135 30.9813H46.4722L55.3236 38.7268H8.85211L17.7035 30.9813H25.449L23.2357 28.7688H15.491L0 42.0458H64.1757L48.6847 28.7688Z" fill="#182839"/>
<path fill-rule="evenodd" clip-rule="evenodd" d="M59.75 5.53228L54.2177 0L30.9812 23.2357L22.1299 14.3844L16.5968 19.9167L30.9812 34.3011L59.75 5.53228Z" fill="#36B6E5"/>
<path d="M135.172 23.9126C134.604 24.2088 134.002 24.4334 133.378 24.5812C132.601 24.7653 131.805 24.8532 131.006 24.8429C130.097 24.8588 129.194 24.6804 128.359 24.3195C127.593 23.9785 126.933 23.436 126.45 22.7496C125.919 21.9663 125.578 21.0707 125.453 20.1332C125.291 18.9137 125.333 17.6758 125.578 16.4703C125.796 15.1045 126.224 13.7807 126.847 12.5457C127.341 11.5735 128.005 10.6974 128.807 9.95834C129.496 9.33023 130.303 8.84587 131.181 8.53361C131.977 8.25098 132.815 8.10362 133.659 8.09767C135.007 8.01794 136.354 8.25695 137.592 8.79532L138.572 6.6439C137.982 6.40452 137.366 6.23382 136.737 6.13518C135.788 5.99365 134.828 5.93046 133.868 5.94623C132.722 5.95303 131.586 6.14952 130.505 6.52773C129.327 6.93932 128.236 7.56517 127.285 8.37369C126.212 9.29213 125.312 10.3948 124.626 11.6297C123.802 13.1368 123.242 14.774 122.972 16.4703C122.65 18.0248 122.603 19.6237 122.833 21.1944C123.008 22.3768 123.467 23.4991 124.171 24.465C124.82 25.3121 125.684 25.9696 126.673 26.3691C127.749 26.7979 128.899 27.0103 130.057 26.994C131.046 26.9976 132.033 26.91 133.006 26.7322C133.867 26.5891 134.69 26.2727 135.425 25.8023L135.172 23.9126ZM140.781 14.9585C141.115 14.7865 141.464 14.6415 141.822 14.5251C142.22 14.393 142.625 14.2832 143.035 14.1965C143.457 14.1064 143.864 14.0366 144.259 13.9869C144.622 13.939 144.987 13.914 145.353 13.912C146.498 13.912 147.249 14.1252 147.608 14.5515C147.965 14.9779 148.049 15.7241 147.858 16.7901C147.774 17.2551 147.65 17.7784 147.487 18.36C147.22 18.3216 146.952 18.3022 146.682 18.3019H145.868C144.858 18.2961 143.849 18.369 142.851 18.5199C142.006 18.6412 141.184 18.8861 140.41 19.2466C139.734 19.5649 139.139 20.032 138.669 20.6128C138.188 21.2366 137.872 21.9715 137.751 22.7496C137.634 23.3167 137.645 23.9027 137.783 24.465C137.908 24.9471 138.149 25.3913 138.485 25.7589C138.833 26.1296 139.264 26.4134 139.743 26.5875C140.29 26.7878 140.87 26.8862 141.453 26.8778C142.035 26.8836 142.615 26.8152 143.179 26.6742C143.66 26.5522 144.127 26.3818 144.573 26.1654C144.962 25.9768 145.327 25.7426 145.661 25.4678C145.954 25.226 146.226 24.9585 146.471 24.6687H146.619L146.876 26.7036H148.624C148.563 26.1143 148.56 25.5203 148.617 24.9304C148.672 24.2905 148.764 23.612 148.894 22.8952C149.071 21.9067 149.289 20.8601 149.547 19.7553C149.804 18.6507 150.037 17.517 150.246 16.3541C150.34 15.8363 150.38 15.3102 150.366 14.7842C150.356 14.2793 150.221 13.7847 149.972 13.3452C149.683 12.8718 149.252 12.5008 148.742 12.284C147.98 11.9782 147.161 11.8394 146.341 11.8771C145.272 11.8753 144.205 11.9824 143.158 12.1969C142.182 12.3891 141.239 12.722 140.359 13.1853L140.781 14.9585ZM140.692 24.1886C140.486 23.9685 140.338 23.7004 140.261 23.4087C140.184 23.1169 140.18 22.8106 140.251 22.5173C140.325 22.06 140.541 21.6376 140.869 21.3105C141.213 20.978 141.622 20.7206 142.071 20.5548C142.589 20.3613 143.129 20.2343 143.679 20.1769C144.28 20.1088 144.884 20.0748 145.489 20.0751C145.766 20.0751 146.046 20.08 146.331 20.0898C146.615 20.0997 146.895 20.114 147.168 20.1332L146.734 22.5463C146.566 22.8309 146.365 23.0944 146.134 23.3311C145.861 23.6167 145.552 23.8659 145.216 24.0725C144.833 24.3077 144.421 24.4934 143.991 24.6249C143.498 24.7749 142.986 24.8484 142.471 24.8429C142.145 24.864 141.819 24.8167 141.512 24.704C141.206 24.5913 140.927 24.4157 140.692 24.1886ZM152.735 14.1446H155.046L152.799 26.6455H155.169L157.416 14.1447H161.355L161.721 12.1094H157.781L157.854 11.7025C157.958 11.121 158.064 10.6123 158.173 10.1763C158.262 9.78828 158.408 9.41579 158.608 9.0714C158.785 8.77653 159.044 8.53931 159.353 8.38845C159.744 8.21793 160.168 8.13837 160.594 8.15577C160.971 8.15735 161.347 8.18647 161.719 8.24289C162.142 8.31007 162.553 8.43744 162.94 8.62112L163.823 6.67334C163.36 6.46966 162.875 6.32315 162.376 6.23703C161.829 6.15412 161.276 6.11528 160.723 6.12087C160.031 6.10574 159.341 6.20892 158.683 6.42596C158.128 6.61998 157.626 6.9382 157.213 7.35629C156.771 7.82187 156.426 8.37031 156.197 8.96995C155.905 9.72122 155.69 10.5005 155.557 11.2956L155.411 12.1094H153.1L152.735 14.1446ZM171.678 23.7964C171.177 24.1618 170.617 24.4371 170.021 24.6102C169.352 24.8356 168.651 24.9534 167.944 24.9591C167.213 24.984 166.485 24.8605 165.803 24.5959C165.281 24.3843 164.835 24.0193 164.525 23.549C164.214 23.0435 164.032 22.4697 163.994 21.8777C163.941 21.1189 163.989 20.3564 164.136 19.6101H173.646C173.881 18.9166 174.068 18.2074 174.204 17.4877C174.425 16.5175 174.434 15.5112 174.231 14.5372C174.078 13.8752 173.733 13.2733 173.238 12.8074C172.765 12.3938 172.194 12.1085 171.58 11.9785C170.931 11.833 170.269 11.7599 169.604 11.7605C168.655 11.7275 167.709 11.8826 166.821 12.2169C165.932 12.5512 165.118 13.0581 164.426 13.7083C162.941 15.2604 161.992 17.2471 161.718 19.3774C161.517 20.4111 161.456 21.4674 161.54 22.5173C161.603 23.3641 161.861 24.1849 162.293 24.9157C162.717 25.5932 163.332 26.1295 164.061 26.4566C164.956 26.8405 165.924 27.0239 166.898 26.994C167.889 26.9962 168.876 26.8594 169.829 26.5875C170.695 26.3532 171.518 25.9801 172.264 25.4825L171.678 23.7964ZM171.539 14.6824C172.005 15.2738 172.106 16.3059 171.841 17.7785H164.494C164.739 16.5783 165.377 15.494 166.307 14.6971C167.169 14.0798 168.209 13.7631 169.268 13.7958C169.69 13.7568 170.114 13.8166 170.508 13.9705C170.902 14.1244 171.255 14.3682 171.539 14.6824ZM168.817 10.0454H170.209L173.87 6.32411L173.979 5.71393H171.343L168.817 10.0454Z" fill="#182839"/>
<path d="M85.6259 6.2951H69.4511V9.84184H75.5242V26.6455H79.5826V9.84184H85.6259V6.2951Z" fill="#36B6E5"/>
<path d="M94.4286 22.9242C93.3592 23.6542 92.0921 24.0396 90.7974 24.0288C90.2887 24.0762 89.7757 24.0181 89.2905 23.8581C88.8053 23.698 88.3584 23.4396 87.9777 23.0988C87.3388 22.322 86.9985 21.3424 87.0183 20.3368H95.8769C95.9746 19.8329 96.0484 19.3483 96.0982 18.8831C96.1458 18.4486 96.1706 18.012 96.1724 17.5749C96.2019 16.6103 96.0304 15.6501 95.6689 14.7552C95.3751 14.0562 94.9178 13.438 94.3353 12.9526C93.7771 12.5044 93.1314 12.1777 92.4397 11.9933C91.7251 11.7992 90.9879 11.7015 90.2475 11.7025C89.2885 11.6441 88.3277 11.7844 87.4254 12.1145C86.5232 12.4447 85.6988 12.9577 85.004 13.6213C83.7598 14.9004 83.1376 16.8192 83.1375 19.3775C83.0224 21.3883 83.6089 23.3767 84.7967 25.0033C85.9024 26.3691 87.6502 27.0521 90.0401 27.0521C91.1394 27.059 92.2333 26.8974 93.2836 26.5728C94.1521 26.3269 94.9698 25.9281 95.6982 25.3951L94.4286 22.9242ZM92.1015 15.569C92.5406 16.2919 92.7126 17.1457 92.5878 17.9822H87.1073C87.1563 17.1239 87.4585 16.2994 87.9758 15.6128C88.2536 15.3039 88.5989 15.0632 88.9849 14.9094C89.3708 14.7556 89.787 14.6929 90.2012 14.7262C90.5631 14.6971 90.9265 14.759 91.2584 14.9062C91.5903 15.0534 91.8801 15.2813 92.1015 15.569ZM104.511 23.709C104.09 23.9409 103.614 24.0516 103.134 24.0288C102.349 24.0299 101.569 23.9073 100.823 23.6656C100.199 23.4759 99.5936 23.2277 99.016 22.9242L97.9493 25.7442C98.6513 26.1469 99.4035 26.4549 100.186 26.6602C101.146 26.9269 102.138 27.0588 103.134 27.0521C105.049 27.0521 106.486 26.6306 107.444 25.7877C107.926 25.3512 108.305 24.8132 108.553 24.2124C108.802 23.6116 108.914 22.963 108.881 22.3137C108.911 21.5827 108.737 20.8579 108.377 20.2207C108.06 19.6976 107.636 19.2469 107.133 18.8978C106.627 18.5531 106.08 18.2746 105.504 18.0693C104.911 17.8561 104.368 17.6575 103.875 17.4735C103.44 17.3182 103.023 17.1184 102.63 16.8772C102.478 16.7948 102.351 16.6731 102.263 16.5248C102.174 16.3765 102.127 16.2071 102.126 16.0344C102.126 15.1622 102.699 14.7261 103.844 14.7262C104.556 14.7263 105.263 14.8241 105.948 15.0169C106.639 15.2107 107.212 15.3947 107.667 15.569L108.525 12.8365C107.851 12.4852 107.134 12.2213 106.392 12.0513C105.394 11.8081 104.369 11.6909 103.341 11.7025C101.991 11.6104 100.653 12.0136 99.5791 12.8365C99.1316 13.2529 98.7824 13.7638 98.5569 14.332C98.3315 14.9002 98.2354 15.5115 98.2757 16.1215C98.2439 16.8665 98.4182 17.6058 98.7793 18.2582C99.0979 18.7925 99.5209 19.2572 100.023 19.6244C100.521 19.9855 101.07 20.2698 101.652 20.4677C102.245 20.671 102.788 20.8696 103.282 21.0636C103.72 21.2286 104.137 21.4432 104.526 21.7031C104.683 21.802 104.811 21.9395 104.899 22.1024C104.988 22.2653 105.032 22.4482 105.029 22.6334C105.048 22.8428 105.01 23.0534 104.919 23.2428C104.828 23.4322 104.687 23.5933 104.511 23.709ZM110.035 15.3073H112.08V22.6335C112.08 24.2034 112.401 25.3325 113.043 26.0207C113.444 26.3923 113.919 26.6761 114.437 26.8537C114.955 27.0313 115.504 27.0988 116.049 27.0521C116.778 27.0524 117.504 26.9648 118.212 26.7911C118.853 26.6401 119.479 26.4259 120.078 26.1516L119.397 23.2441C119.085 23.3838 118.763 23.5004 118.434 23.5928C118.1 23.676 117.756 23.715 117.412 23.709C117.173 23.7325 116.933 23.6824 116.724 23.5655C116.515 23.4486 116.347 23.2705 116.242 23.0551C115.993 22.3617 115.887 21.6249 115.931 20.8893V15.3073H119.545V12.1095H115.931V8.30139L112.08 9.37691V12.1095H110.035V15.3073Z" fill="#36B6E5"/>
<path d="M178.759 14.5383C178.466 14.5469 178.174 14.4972 177.9 14.3919C177.626 14.2866 177.376 14.128 177.164 13.9252C176.954 13.7252 176.788 13.4832 176.678 13.2149C176.568 12.9466 176.516 12.6581 176.524 12.3682C176.519 12.0784 176.574 11.7906 176.686 11.5231C176.797 11.2556 176.963 11.0142 177.173 10.8141C177.603 10.4085 178.171 10.181 178.763 10.1775C179.354 10.1739 179.925 10.3946 180.36 10.795C180.564 10.9998 180.726 11.2429 180.835 11.5103C180.945 11.7776 181.001 12.064 181 12.353C180.999 12.642 180.941 12.9279 180.829 13.1944C180.717 13.4609 180.554 13.7028 180.349 13.9061C180.139 14.1125 179.891 14.2748 179.618 14.3834C179.345 14.492 179.053 14.5447 178.759 14.5383ZM178.765 10.4891C178.517 10.4832 178.27 10.5275 178.04 10.6194C177.809 10.7112 177.599 10.8488 177.423 11.0238C177.247 11.1988 177.108 11.4075 177.015 11.6376C176.922 11.8676 176.876 12.1141 176.88 12.3623C176.873 12.6113 176.918 12.859 177.013 13.0896C177.107 13.3202 177.248 13.5287 177.427 13.7017C177.787 14.0453 178.265 14.2366 178.763 14.2355C179.26 14.2344 179.738 14.041 180.096 13.6959C180.446 13.3402 180.643 12.8615 180.644 12.3623C180.646 11.8632 180.451 11.3834 180.103 11.0258C179.928 10.8502 179.719 10.7121 179.489 10.6198C179.259 10.5276 179.013 10.4831 178.765 10.4891ZM179.247 13.7062L179 13.0122C178.904 12.7398 178.772 12.6035 178.603 12.6034H178.368V13.7061H177.833V10.9596H178.73C179.008 10.941 179.284 11.0127 179.518 11.164C179.606 11.2292 179.676 11.3148 179.723 11.4135C179.771 11.5121 179.793 11.6208 179.788 11.7301C179.788 12.1065 179.568 12.3496 179.127 12.4594V12.4711C179.229 12.5074 179.321 12.5673 179.396 12.646C179.47 12.7247 179.525 12.82 179.556 12.924L179.885 13.7062L179.247 13.7062ZM178.368 11.4007V12.1947H178.747C178.87 12.2015 178.992 12.1622 179.087 12.0844C179.128 12.0479 179.161 12.0028 179.183 11.9522C179.204 11.9016 179.214 11.8468 179.212 11.7918C179.212 11.5312 179.036 11.4008 178.683 11.4007H178.368Z" fill="#182839"/>
<path d="M78.8868 37.8691C78.8904 37.7501 78.8667 37.6318 78.8177 37.5232C78.7686 37.4147 78.6955 37.3188 78.6038 37.2428C78.3878 37.065 78.1488 36.9171 77.8932 36.8032C77.608 36.6708 77.2989 36.5343 76.9658 36.3937C76.6381 36.2564 76.3269 36.0825 76.0381 35.8754C75.7527 35.6705 75.5111 35.4105 75.3276 35.1108C75.1261 34.7555 75.0281 34.3508 75.0445 33.9427C75.0357 33.5768 75.1055 33.2133 75.2493 32.8767C75.3803 32.5823 75.5807 32.3241 75.8334 32.1239C76.0997 31.9166 76.4049 31.7649 76.731 31.6777C77.108 31.5774 77.4969 31.5289 77.887 31.5336C78.3518 31.5312 78.8157 31.5735 79.2724 31.66C79.6472 31.7238 80.0091 31.848 80.3442 32.0276L79.8263 33.4127C79.5778 33.2717 79.3099 33.1682 79.0312 33.1054C78.6573 33.0104 78.2728 32.964 77.887 32.9672C77.5751 32.9467 77.2649 33.0269 77.0019 33.1958C76.904 33.2648 76.8248 33.357 76.7712 33.4641C76.7175 33.5712 76.6912 33.6899 76.6946 33.8096C76.6929 33.925 76.7176 34.0392 76.7666 34.1437C76.8156 34.2481 76.8878 34.34 76.9776 34.4124C77.1946 34.5906 77.4335 34.7404 77.6885 34.858C77.9734 34.9947 78.2825 35.1351 78.6159 35.2792C78.9429 35.4203 79.2538 35.596 79.5433 35.8033C79.8275 36.0072 80.069 36.265 80.2538 36.562C80.4529 36.9031 80.5511 37.2937 80.5369 37.6883C80.547 38.0872 80.471 38.4836 80.3141 38.8505C80.1722 39.1671 79.9576 39.4456 79.6878 39.6636C79.3996 39.8902 79.0674 40.0542 78.7123 40.1451C78.3016 40.2532 77.8783 40.3059 77.4537 40.3017C76.9188 40.3092 76.385 40.2527 75.8635 40.1334C75.515 40.0583 75.1758 39.9452 74.852 39.796L75.382 38.3867C75.4931 38.4457 75.6076 38.498 75.725 38.5433C75.8804 38.6048 76.0394 38.6571 76.201 38.6998C76.3853 38.7502 76.5721 38.7904 76.7608 38.8204C76.9619 38.8531 77.1654 38.8693 77.3691 38.8689C77.7602 38.8921 78.15 38.8067 78.4954 38.6219C78.6224 38.5433 78.7258 38.4319 78.7947 38.2994C78.8636 38.1669 78.8954 38.0182 78.8868 37.8691ZM99.5857 33.1715H97.1288V40.1334H95.4784V33.1715H93.0087V31.7019H99.5857V33.1715ZM116.983 31.7019H118.549V37.1464C118.56 37.6253 118.486 38.1023 118.332 38.5557C118.205 38.9208 117.999 39.2538 117.73 39.5313C117.466 39.7919 117.144 39.9859 116.79 40.0973C116.397 40.2215 115.986 40.2826 115.574 40.2782C113.437 40.2782 112.369 39.3024 112.37 37.3508V31.7019H114.02V37.0259C114.014 37.3077 114.045 37.5891 114.11 37.8633C114.158 38.068 114.255 38.2579 114.393 38.4168C114.524 38.5589 114.69 38.663 114.875 38.7182C115.094 38.7821 115.321 38.8126 115.549 38.8086C115.752 38.8276 115.957 38.7994 116.147 38.7262C116.337 38.653 116.508 38.5368 116.646 38.3867C116.905 37.9825 117.023 37.5043 116.983 37.0259V31.7019ZM131.924 31.7019C132.093 31.6777 132.284 31.6578 132.496 31.6416C132.709 31.6262 132.928 31.6137 133.153 31.6057C133.378 31.5976 133.597 31.5917 133.809 31.588C134.022 31.5836 134.213 31.5813 134.381 31.5813C135.033 31.5652 135.683 31.6715 136.296 31.8946C136.791 32.0793 137.233 32.381 137.586 32.7738C137.922 33.1654 138.169 33.6258 138.308 34.1228C138.466 34.6832 138.543 35.2632 138.537 35.8452C138.539 36.4026 138.466 36.9577 138.32 37.4957C138.183 38.0117 137.936 38.4923 137.597 38.905C137.236 39.3327 136.78 39.6706 136.266 39.8923C135.62 40.1598 134.924 40.2871 134.225 40.2657C134.097 40.2657 133.925 40.262 133.713 40.254C133.5 40.2459 133.279 40.2355 133.051 40.2238C132.822 40.2113 132.603 40.1993 132.394 40.1878C132.185 40.1753 132.029 40.1611 131.924 40.1451V31.7019ZM134.514 33.0509C134.337 33.0509 134.158 33.0551 133.978 33.0634C133.843 33.0671 133.708 33.0791 133.575 33.0995V38.7484C133.628 38.759 133.683 38.7649 133.737 38.766C133.814 38.7704 133.895 38.7741 133.984 38.7785C134.072 38.7822 134.156 38.7866 134.237 38.7902C134.317 38.7947 134.377 38.7961 134.418 38.7961C134.82 38.8104 135.219 38.7258 135.58 38.5499C135.876 38.3964 136.129 38.1705 136.315 37.8934C136.501 37.6057 136.63 37.2843 136.694 36.9473C136.767 36.5845 136.803 36.2153 136.803 35.8452C136.802 35.5118 136.77 35.1793 136.706 34.8521C136.647 34.5325 136.527 34.2275 136.351 33.9544C136.172 33.6839 135.93 33.4607 135.646 33.3038C135.297 33.1232 134.907 33.0361 134.514 33.0509ZM151.851 31.7019H153.502V40.1334H151.851V31.7019ZM166.816 35.918C166.741 34.7613 167.068 33.6142 167.743 32.6716C168.066 32.2891 168.474 31.9872 168.934 31.7896C169.394 31.5921 169.893 31.5044 170.393 31.5336C170.936 31.5215 171.474 31.6284 171.971 31.8468C172.411 32.0483 172.796 32.3541 173.091 32.7378C173.401 33.1511 173.626 33.6219 173.754 34.1228C173.904 34.7092 173.977 35.3127 173.97 35.918C174.045 37.0755 173.715 38.2229 173.037 39.1637C172.714 39.545 172.308 39.8462 171.849 40.0437C171.39 40.2412 170.892 40.3295 170.393 40.3017C169.847 40.3147 169.304 40.2078 168.803 39.9885C168.364 39.7881 167.981 39.482 167.689 39.0975C167.382 38.6831 167.159 38.2126 167.033 37.7125C166.882 37.1265 166.809 36.5231 166.816 35.918ZM168.55 35.918C168.547 36.312 168.583 36.7053 168.658 37.0921C168.718 37.415 168.83 37.7261 168.99 38.0132C169.127 38.2588 169.324 38.466 169.562 38.616C169.813 38.7653 170.101 38.8405 170.393 38.8329C170.66 38.8438 170.925 38.7864 171.163 38.6662C171.401 38.5461 171.604 38.3671 171.754 38.1463C172.129 37.4666 172.296 36.6919 172.235 35.918C172.238 35.5341 172.204 35.1508 172.133 34.7734C172.075 34.4498 171.968 34.1371 171.814 33.8463C171.682 33.5944 171.487 33.3808 171.248 33.2259C170.884 33.0184 170.457 32.9528 170.048 33.0418C169.638 33.1307 169.277 33.3678 169.032 33.7075C168.661 34.3823 168.494 35.1501 168.55 35.918Z" fill="#C5C9CE"/>
</svg>
