<svg version="1.1" xmlns="http://www.w3.org/2000/svg" xmlns:xlink="http://www.w3.org/1999/xlink" width="20" height="20"><defs/><g><path fill="rgb(14,36,53)" stroke="none" paint-order="stroke fill markers" fill-rule="evenodd" d=" M 8.499902248382568 1.999969482421875 C 12.089770793914795 1.999969482421875 14.999967575073242 4.910142421722412 14.999967575073242 8.499963283538818 C 14.999967575073242 12.089849710464478 12.089770793914795 14.999957084655762 8.499902248382568 14.999957084655762 C 4.9101409912109375 14.999957084655762 1.9999442100524902 12.089849710464478 1.9999442100524902 8.499963283538818 C 1.9999442100524902 4.910142421722412 4.9101409912109375 1.999969482421875 8.499902248382568 1.999969482421875 Z M 11.938923358917236 14.05975341796875 C 11.938923358917236 14.05975341796875 14.060336112976074 11.938066482543945 14.060336112976074 11.938066482543945 C 14.060336112976074 11.938066482543945 18.060260772705078 15.93852162361145 18.060260772705078 15.93852162361145 C 18.060260772705078 15.93852162361145 15.938955307006836 18.05942177772522 15.938955307006836 18.05942177772522 C 15.938955307006836 18.05942177772522 11.938923358917236 14.05975341796875 11.938923358917236 14.05975341796875 Z M 8.499580383300781 3.9987874031066895 C 10.984915256500244 3.9987874031066895 12.999576091766357 6.013996601104736 12.999576091766357 8.498783111572266 C 12.999576091766357 10.984421968460083 10.984915256500244 12.998909950256348 8.499580383300781 12.998909950256348 C 6.014245510101318 12.998909950256348 3.999584674835205 10.984421968460083 3.999584674835205 8.498783111572266 C 3.999584674835205 6.013996601104736 6.014245510101318 3.9987874031066895 8.499580383300781 3.9987874031066895 Z"/></g></svg>