<?xml version="1.0" encoding="iso-8859-1"?>
<!-- Generator: Adobe Illustrator 21.1.0, SVG Export Plug-In . SVG Version: 6.00 Build 0)  -->
<svg version="1.1" id="Layer_1" xmlns="http://www.w3.org/2000/svg" xmlns:xlink="http://www.w3.org/1999/xlink" width="20" height="20" x="0px" y="0px"
	 viewBox="0 0 20 16" style="enable-background:new 0 0 20 16;" xml:space="preserve">
<style type="text/css">
	.st0{fill:#1DA1F2;}
</style>
<g>
	<path class="st0" d="M19.904,1.893c-0.722,0.32-1.503,0.542-2.32,0.639c0.836-0.5,1.473-1.293,1.779-2.237
		c-0.782,0.463-1.647,0.8-2.573,0.98C16.057,0.492,15.004,0,13.844,0c-2.23,0-4.039,1.81-4.039,4.039
		c0,0.319,0.037,0.625,0.103,0.92C6.547,4.79,3.573,3.185,1.577,0.739C1.228,1.334,1.029,2.031,1.029,2.771
		c0,1.4,0.716,2.639,1.797,3.359C2.165,6.114,1.546,5.927,1,5.626v0.049c0,1.959,1.394,3.593,3.239,3.967
		C3.902,9.731,3.542,9.779,3.176,9.779c-0.259,0-0.511-0.023-0.763-0.071c0.517,1.605,2.007,2.77,3.775,2.807
		C4.804,13.596,3.06,14.24,1.168,14.24c-0.325,0-0.643-0.018-0.962-0.054C1.997,15.334,4.119,16,6.403,16
		c7.429,0,11.493-6.155,11.493-11.491l-0.012-0.523C18.677,3.414,19.362,2.705,19.904,1.893L19.904,1.893z M19.904,1.893"/>
</g>
</svg>
