<svg version="1.1" xmlns="http://www.w3.org/2000/svg" xmlns:xlink="http://www.w3.org/1999/xlink" width="20" height="20"><defs/><g><path fill="rgb(255,255,255)" stroke="none" paint-order="stroke fill markers" fill-rule="evenodd" d=" M 8.499903202056885 1.9998888969421387 C 12.089771747589111 1.9998888969421387 14.999968528747559 4.910049915313721 14.999968528747559 8.499906539916992 C 14.999968528747559 12.089763164520264 12.089771747589111 14.999924182891846 8.499903202056885 14.999924182891846 C 4.910141944885254 14.999924182891846 1.9999451637268066 12.089763164520264 1.9999451637268066 8.499906539916992 C 1.9999451637268066 4.910049915313721 4.910141944885254 1.9998888969421387 8.499903202056885 1.9998888969421387 Z M 11.938924312591553 14.059207916259766 C 11.938924312591553 14.059207916259766 14.06033706665039 11.937592506408691 14.06033706665039 11.937592506408691 C 14.06033706665039 11.937592506408691 18.060261726379395 15.938172817230225 18.060261726379395 15.938172817230225 C 18.060261726379395 15.938172817230225 15.938956260681152 18.0589656829834 15.938956260681152 18.0589656829834 C 15.938956260681152 18.0589656829834 11.938924312591553 14.059207916259766 11.938924312591553 14.059207916259766 Z M 8.499581336975098 3.998396873474121 C 10.98491621017456 3.998396873474121 12.999577045440674 6.013629913330078 12.999577045440674 8.498535633087158 C 12.999577045440674 10.983989715576172 10.98491621017456 12.998400211334229 8.499581336975098 12.998400211334229 C 6.014246463775635 12.998400211334229 3.9995856285095215 10.983989715576172 3.9995856285095215 8.498535633087158 C 3.9995856285095215 6.013629913330078 6.014246463775635 3.998396873474121 8.499581336975098 3.998396873474121 Z"/></g></svg>