<svg width="277" height="65" viewBox="0 0 277 65" fill="none" xmlns="http://www.w3.org/2000/svg">
<path fill-rule="evenodd" clip-rule="evenodd" d="M74.5064 44.0274H59.2669L55.8798 47.4133H71.1205L84.6665 59.2669H13.5471L27.0931 47.4133H38.9468L35.5597 44.0274H23.7072L0 64.3464H98.2137L74.5064 44.0274Z" fill="white"/>
<path fill-rule="evenodd" clip-rule="evenodd" d="M91.4407 8.46653L82.9741 0L47.4133 35.5597L33.8673 22.0137L25.3996 30.4802L47.4133 52.4939L91.4407 8.46653Z" fill="#36B6E5"/>
<path d="M206.866 36.5955C205.996 37.0488 205.074 37.3926 204.12 37.6188C202.931 37.9006 201.712 38.0351 200.49 38.0193C199.098 38.0436 197.717 37.7705 196.44 37.2183C195.266 36.6965 194.256 35.8661 193.517 34.8157C192.705 33.617 192.183 32.2463 191.991 30.8116C191.743 28.9453 191.808 27.0508 192.184 25.206C192.517 23.1158 193.172 21.0899 194.124 19.1998C194.881 17.712 195.897 16.3711 197.125 15.2402C198.179 14.2789 199.414 13.5376 200.758 13.0598C201.976 12.6272 203.258 12.4017 204.55 12.3926C206.613 12.2706 208.675 12.6364 210.569 13.4603L212.068 10.1678C211.165 9.80145 210.223 9.54021 209.261 9.38924C207.808 9.17266 206.339 9.07594 204.87 9.10008C203.117 9.11048 201.377 9.41119 199.723 9.99C197.92 10.6199 196.25 11.5777 194.796 12.815C193.154 14.2206 191.776 15.908 190.727 17.7979C189.465 20.1044 188.609 22.61 188.194 25.2059C187.702 27.585 187.63 30.0319 187.983 32.4356C188.25 34.2451 188.953 35.9627 190.03 37.441C191.023 38.7373 192.345 39.7436 193.859 40.3549C195.505 41.0112 197.265 41.3362 199.037 41.3112C200.551 41.3168 202.062 41.1827 203.551 40.9107C204.869 40.6916 206.128 40.2074 207.253 39.4875L206.866 36.5955ZM215.449 22.8923C215.961 22.6291 216.494 22.4073 217.042 22.229C217.651 22.0268 218.271 21.8589 218.899 21.7261C219.544 21.5883 220.168 21.4814 220.772 21.4055C221.327 21.3321 221.886 21.2938 222.447 21.2907C224.198 21.2907 225.349 21.617 225.897 22.2695C226.444 22.9221 226.572 24.064 226.28 25.6954C226.152 26.407 225.962 27.2078 225.712 28.0979C225.304 28.0391 224.893 28.0094 224.481 28.0091H223.234C221.689 28.0002 220.145 28.1117 218.617 28.3426C217.324 28.5283 216.066 28.903 214.882 29.4548C213.847 29.9419 212.936 30.6567 212.216 31.5457C211.481 32.5003 210.998 33.6249 210.812 34.8157C210.634 35.6836 210.651 36.5804 210.862 37.441C211.053 38.1787 211.421 38.8585 211.935 39.4212C212.469 39.9885 213.128 40.4228 213.86 40.6891C214.698 40.9957 215.586 41.1463 216.478 41.1335C217.368 41.1423 218.255 41.0376 219.119 40.8219C219.855 40.6352 220.57 40.3743 221.253 40.0433C221.848 39.7546 222.407 39.3962 222.918 38.9757C223.367 38.6055 223.782 38.1962 224.158 37.7526H224.384L224.777 40.8669H227.452C227.358 39.965 227.355 39.0559 227.441 38.1532C227.525 37.1738 227.667 36.1356 227.865 35.0385C228.136 33.5258 228.469 31.9241 228.864 30.2333C229.258 28.5429 229.615 26.8078 229.935 25.0282C230.079 24.2358 230.14 23.4306 230.117 22.6256C230.103 21.8529 229.896 21.096 229.515 20.4233C229.072 19.6989 228.414 19.1311 227.632 18.7993C226.466 18.3313 225.213 18.1189 223.958 18.1765C222.322 18.1738 220.69 18.3378 219.087 18.666C217.593 18.9601 216.15 19.4696 214.803 20.1786L215.449 22.8923ZM215.314 37.018C214.998 36.6811 214.771 36.2709 214.653 35.8244C214.535 35.3779 214.53 34.909 214.639 34.4602C214.751 33.7603 215.082 33.114 215.584 32.6134C216.11 32.1045 216.737 31.7106 217.423 31.4568C218.216 31.1607 219.042 30.9663 219.884 30.8785C220.804 30.7743 221.729 30.7223 222.655 30.7227C223.078 30.7227 223.507 30.7302 223.943 30.7452C224.378 30.7604 224.806 30.7823 225.223 30.8116L224.56 34.5046C224.303 34.9402 223.994 35.3434 223.642 35.7057C223.224 36.1428 222.752 36.5241 222.236 36.8402C221.65 37.2003 221.02 37.4844 220.362 37.6857C219.608 37.9152 218.823 38.0277 218.035 38.0193C217.537 38.0516 217.037 37.9792 216.569 37.8067C216.1 37.6342 215.672 37.3656 215.314 37.018ZM233.743 21.6468H237.28L233.841 40.778H237.469L240.907 21.6469H246.936L247.496 18.5321H241.466L241.578 17.9094C241.737 17.0195 241.899 16.2409 242.066 15.5738C242.202 14.9799 242.426 14.4098 242.732 13.8828C243.002 13.4315 243.398 13.0685 243.871 12.8376C244.47 12.5767 245.119 12.4549 245.772 12.4815C246.348 12.484 246.923 12.5285 247.493 12.6149C248.14 12.7177 248.77 12.9126 249.362 13.1937L250.713 10.2128C250.005 9.90113 249.261 9.67691 248.499 9.54512C247.661 9.41824 246.815 9.35879 245.968 9.36735C244.909 9.34419 243.853 9.50209 242.846 9.83425C241.998 10.1312 241.228 10.6182 240.596 11.258C239.92 11.9705 239.392 12.8099 239.042 13.7275C238.595 14.8773 238.267 16.0699 238.063 17.2867L237.839 18.5321H234.303L233.743 21.6468ZM262.734 36.4177C261.967 36.9769 261.109 37.3983 260.198 37.6632C259.174 38.0081 258.101 38.1883 257.02 38.1971C255.901 38.2352 254.786 38.0462 253.743 37.6414C252.943 37.3174 252.261 36.7588 251.786 36.0392C251.311 35.2655 251.033 34.3874 250.975 33.4814C250.893 32.3201 250.966 31.1532 251.191 30.0111H265.745C266.106 28.9498 266.391 27.8644 266.6 26.763C266.938 25.2783 266.951 23.7382 266.64 22.2476C266.407 21.2345 265.878 20.3133 265.122 19.6003C264.398 18.9674 263.524 18.5307 262.583 18.3318C261.591 18.109 260.577 17.9972 259.56 17.9982C258.108 17.9477 256.66 18.185 255.3 18.6966C253.94 19.2082 252.694 19.984 251.635 20.9791C249.363 23.3544 247.911 26.3947 247.492 29.655C247.183 31.2369 247.091 32.8535 247.218 34.4602C247.315 35.7562 247.71 37.0123 248.372 38.1308C249.019 39.1675 249.961 39.9883 251.076 40.4888C252.446 41.0764 253.928 41.3571 255.418 41.3113C256.935 41.3147 258.445 41.1053 259.905 40.6891C261.23 40.3307 262.488 39.7596 263.631 38.9981L262.734 36.4177ZM262.52 22.4698C263.235 23.3749 263.389 24.9543 262.984 27.208H251.74C252.114 25.3712 253.091 23.7118 254.514 22.4923C255.833 21.5476 257.425 21.0629 259.046 21.113C259.691 21.0533 260.341 21.1448 260.944 21.3804C261.547 21.6159 262.087 21.989 262.52 22.4698ZM258.355 15.3735H260.486L266.088 9.67838L266.256 8.74457H262.221L258.355 15.3735Z" fill="white"/>
<path d="M131.041 9.63394H106.287V15.0618H115.581V40.778H121.792V15.0618H131.041V9.63394Z" fill="#36B6E5"/>
<path d="M144.512 35.0829C142.876 36.2 140.937 36.7899 138.955 36.7733C138.177 36.8459 137.392 36.7569 136.649 36.512C135.906 36.2671 135.222 35.8716 134.64 35.3501C133.662 34.1613 133.141 32.6622 133.172 31.1232H146.729C146.878 30.352 146.991 29.6104 147.067 28.8984C147.14 28.2335 147.178 27.5653 147.181 26.8964C147.226 25.4201 146.964 23.9506 146.41 22.5812C145.961 21.5114 145.261 20.5653 144.369 19.8225C143.515 19.1366 142.527 18.6365 141.468 18.3543C140.375 18.0574 139.247 17.9077 138.114 17.9094C136.646 17.82 135.176 18.0346 133.795 18.5399C132.414 19.0452 131.152 19.8302 130.089 20.8458C128.185 22.8034 127.233 25.7398 127.232 29.655C127.056 32.7324 127.954 35.7754 129.772 38.2646C131.464 40.3549 134.139 41.4001 137.796 41.4001C139.479 41.4107 141.153 41.1634 142.76 40.6666C144.089 40.2903 145.34 39.6799 146.455 38.8643L144.512 35.0829ZM140.951 23.8266C141.623 24.9329 141.886 26.2395 141.695 27.5197H133.308C133.383 26.2062 133.845 24.9444 134.637 23.8936C135.062 23.4208 135.591 23.0524 136.181 22.8171C136.772 22.5818 137.409 22.4858 138.043 22.5367C138.597 22.4923 139.153 22.587 139.661 22.8123C140.169 23.0376 140.612 23.3863 140.951 23.8266ZM159.943 36.2839C159.299 36.6388 158.569 36.8082 157.834 36.7733C156.634 36.775 155.44 36.5875 154.298 36.2175C153.343 35.9272 152.417 35.5473 151.533 35.0829L149.9 39.3986C150.975 40.0148 152.126 40.4862 153.324 40.8004C154.792 41.2086 156.31 41.4104 157.834 41.4001C160.766 41.4001 162.965 40.7551 164.431 39.4651C165.168 38.7972 165.748 37.9737 166.128 37.0543C166.509 36.1348 166.68 35.1423 166.63 34.1485C166.676 33.0299 166.409 31.9206 165.859 30.9454C165.373 30.1449 164.724 29.4552 163.955 28.9209C163.181 28.3934 162.343 27.9672 161.461 27.653C160.555 27.3267 159.724 27.0228 158.968 26.7411C158.304 26.5036 157.665 26.1978 157.064 25.8287C156.831 25.7026 156.637 25.5163 156.501 25.2893C156.366 25.0624 156.294 24.8032 156.293 24.5388C156.293 23.2039 157.169 22.5366 158.922 22.5368C160.01 22.5369 161.094 22.6866 162.141 22.9817C163.199 23.2782 164.075 23.5598 164.771 23.8266L166.085 19.6448C165.053 19.1071 163.956 18.7034 162.822 18.4432C161.293 18.071 159.724 17.8916 158.152 17.9093C156.085 17.7684 154.039 18.3854 152.395 19.6447C151.71 20.282 151.175 21.0639 150.83 21.9335C150.485 22.8031 150.338 23.7386 150.4 24.6721C150.351 25.8122 150.618 26.9437 151.17 27.9421C151.658 28.7598 152.306 29.4709 153.074 30.033C153.836 30.5856 154.676 31.0206 155.567 31.3235C156.474 31.6346 157.305 31.9385 158.061 32.2354C158.731 32.4879 159.37 32.8163 159.965 33.2142C160.205 33.3654 160.402 33.5758 160.537 33.8252C160.672 34.0745 160.74 34.3544 160.736 34.6379C160.765 34.9583 160.706 35.2806 160.567 35.5704C160.427 35.8603 160.211 36.1068 159.943 36.2839ZM168.396 23.4261H171.525V34.6379C171.525 37.0406 172.016 38.7685 172.999 39.8217C173.614 40.3905 174.341 40.8247 175.133 41.0965C175.926 41.3683 176.766 41.4717 177.6 41.4001C178.715 41.4006 179.826 41.2665 180.909 41.0008C181.891 40.7696 182.848 40.4418 183.766 40.022L182.723 35.5724C182.246 35.7862 181.754 35.9646 181.25 36.1061C180.739 36.2334 180.212 36.2931 179.685 36.2839C179.32 36.3199 178.953 36.2433 178.633 36.0644C178.313 35.8855 178.056 35.6129 177.895 35.2832C177.514 34.222 177.352 33.0944 177.419 31.9687V23.4261H182.95V18.5322H177.419V12.7043L171.525 14.3503V18.5322H168.396V23.4261Z" fill="#36B6E5"/>
<path d="M273.571 22.2493C273.122 22.2624 272.675 22.1863 272.256 22.0252C271.837 21.8641 271.454 21.6213 271.129 21.311C270.808 21.0049 270.555 20.6344 270.386 20.2239C270.217 19.8133 270.137 19.3718 270.151 18.9281C270.142 18.4846 270.226 18.0442 270.397 17.6348C270.568 17.2255 270.822 16.856 271.143 16.5497C271.802 15.929 272.671 15.5809 273.576 15.5755C274.481 15.57 275.355 15.9077 276.021 16.5205C276.333 16.834 276.58 17.206 276.748 17.6152C276.916 18.0243 277.002 18.4626 277 18.9048C276.998 19.3471 276.909 19.7847 276.738 20.1926C276.567 20.6004 276.317 20.9706 276.003 21.2817C275.683 21.5976 275.303 21.8459 274.885 22.0121C274.467 22.1783 274.02 22.259 273.571 22.2493ZM273.58 16.0524C273.2 16.0433 272.822 16.1111 272.469 16.2517C272.116 16.3924 271.796 16.6029 271.526 16.8707C271.257 17.1384 271.044 17.458 270.901 17.81C270.759 18.162 270.688 18.5393 270.695 18.9191C270.685 19.3002 270.754 19.6793 270.898 20.0322C271.042 20.3851 271.258 20.7041 271.532 20.969C272.082 21.4948 272.815 21.7875 273.576 21.7858C274.337 21.7841 275.068 21.4882 275.616 20.96C276.152 20.4156 276.453 19.683 276.455 18.9192C276.458 18.1553 276.16 17.421 275.627 16.8737C275.36 16.605 275.04 16.3936 274.688 16.2524C274.336 16.1112 273.959 16.0432 273.58 16.0524ZM274.318 20.9757L273.94 19.9137C273.792 19.4968 273.59 19.2883 273.332 19.2881H272.972V20.9757H272.153V16.7725H273.526C273.951 16.7439 274.374 16.8537 274.732 17.0852C274.866 17.185 274.974 17.316 275.046 17.467C275.119 17.618 275.153 17.7844 275.146 17.9516C275.146 18.5276 274.808 18.8997 274.133 19.0677V19.0857C274.29 19.1411 274.431 19.2328 274.545 19.3533C274.659 19.4737 274.743 19.6195 274.79 19.7787L275.294 20.9758L274.318 20.9757ZM272.972 17.4475V18.6626H273.553C273.741 18.6731 273.926 18.6129 274.073 18.4938C274.136 18.438 274.185 18.3689 274.219 18.2914C274.252 18.214 274.267 18.1302 274.264 18.0461C274.264 17.6472 273.994 17.4477 273.454 17.4475H272.972Z" fill="white"/>
<path d="M120.727 57.9544C120.733 57.7722 120.697 57.5911 120.622 57.425C120.546 57.2589 120.435 57.1121 120.294 56.9958C119.964 56.7237 119.598 56.4974 119.207 56.323C118.77 56.1205 118.297 55.9116 117.788 55.6963C117.286 55.4862 116.81 55.2201 116.368 54.9032C115.931 54.5895 115.561 54.1917 115.28 53.7331C114.972 53.1892 114.822 52.57 114.847 51.9454C114.834 51.3855 114.941 50.8292 115.16 50.3141C115.361 49.8635 115.668 49.4682 116.054 49.162C116.462 48.8447 116.929 48.6125 117.428 48.4791C118.005 48.3256 118.6 48.2514 119.197 48.2586C119.909 48.2548 120.619 48.3196 121.317 48.452C121.891 48.5497 122.445 48.7397 122.958 49.0145L122.165 51.1342C121.785 50.9186 121.375 50.7601 120.948 50.664C120.376 50.5187 119.788 50.4476 119.197 50.4524C118.72 50.4212 118.245 50.5438 117.843 50.8023C117.693 50.908 117.572 51.0491 117.49 51.213C117.408 51.3769 117.367 51.5585 117.372 51.7417C117.37 51.9183 117.408 52.0931 117.483 52.2529C117.558 52.4128 117.668 52.5535 117.806 52.6643C118.138 52.937 118.503 53.1661 118.893 53.3461C119.329 53.5553 119.803 53.7702 120.313 53.9908C120.813 54.2067 121.289 54.4756 121.732 54.7929C122.167 55.105 122.536 55.4995 122.819 55.954C123.124 56.4759 123.274 57.0737 123.253 57.6776C123.268 58.2881 123.152 58.8948 122.912 59.4563C122.694 59.9407 122.366 60.367 121.953 60.7006C121.512 61.0474 121.004 61.2984 120.46 61.4375C119.832 61.603 119.184 61.6835 118.534 61.6771C117.716 61.6887 116.899 61.6022 116.101 61.4195C115.567 61.3047 115.048 61.1315 114.552 60.9032L115.364 58.7464C115.534 58.8367 115.709 58.9168 115.888 58.986C116.126 59.0802 116.37 59.1602 116.617 59.2257C116.899 59.3027 117.185 59.3643 117.474 59.4102C117.782 59.4602 118.093 59.485 118.405 59.4844C119.003 59.52 119.6 59.3891 120.128 59.1064C120.323 58.9862 120.481 58.8156 120.586 58.6128C120.692 58.4101 120.741 58.1825 120.727 57.9544ZM152.405 50.7652H148.645V61.4195H146.119V50.7652H142.339V48.5162H152.405V50.7652ZM179.029 48.5162H181.426V56.8484C181.442 57.5812 181.33 58.3112 181.094 59.0051C180.899 59.5639 180.584 60.0734 180.172 60.4981C179.769 60.897 179.276 61.1939 178.735 61.3644C178.132 61.5545 177.504 61.6479 176.873 61.6412C173.603 61.6412 171.969 60.1479 171.97 57.1612V48.5162H174.494V56.6639C174.486 57.0952 174.533 57.5258 174.633 57.9454C174.706 58.2586 174.855 58.5494 175.066 58.7925C175.266 59.0099 175.521 59.1693 175.804 59.2538C176.139 59.3516 176.486 59.3982 176.835 59.3921C177.146 59.4212 177.459 59.378 177.75 59.266C178.041 59.154 178.302 58.9761 178.513 58.7464C178.909 58.1279 179.091 57.396 179.029 56.6639V48.5162ZM201.895 48.5162C202.153 48.4791 202.445 48.4487 202.77 48.4239C203.097 48.4003 203.431 48.3811 203.775 48.3688C204.119 48.3565 204.455 48.3474 204.78 48.3417C205.105 48.3351 205.397 48.3316 205.655 48.3316C206.653 48.3069 207.647 48.4695 208.586 48.811C209.343 49.0937 210.02 49.5553 210.559 50.1565C211.074 50.7559 211.451 51.4605 211.665 52.221C211.906 53.0786 212.024 53.9662 212.015 54.857C212.018 55.71 211.906 56.5595 211.683 57.3828C211.473 58.1725 211.096 58.908 210.577 59.5396C210.024 60.1941 209.327 60.7114 208.54 61.0505C207.551 61.46 206.486 61.6548 205.416 61.6221C205.22 61.6221 204.958 61.6164 204.632 61.6041C204.307 61.5918 203.969 61.5759 203.619 61.5579C203.269 61.5388 202.934 61.5204 202.614 61.5028C202.295 61.4837 202.055 61.4619 201.895 61.4375V48.5162ZM205.859 50.5807C205.588 50.5807 205.314 50.587 205.039 50.5998C204.832 50.6053 204.625 50.6238 204.421 50.655V59.3C204.503 59.3162 204.586 59.3252 204.67 59.3269C204.787 59.3337 204.911 59.3393 205.048 59.3461C205.183 59.3517 205.311 59.3584 205.435 59.364C205.557 59.3708 205.649 59.373 205.711 59.373C206.326 59.3948 206.937 59.2654 207.49 58.9962C207.943 58.7612 208.33 58.4156 208.614 57.9914C208.9 57.5512 209.097 57.0593 209.195 56.5435C209.306 55.9883 209.362 55.4233 209.361 54.857C209.36 54.3468 209.311 53.8378 209.213 53.3371C209.123 52.848 208.939 52.3812 208.669 51.9634C208.395 51.5494 208.026 51.2078 207.591 50.9676C207.057 50.6913 206.46 50.558 205.859 50.5807ZM232.391 48.5162H234.917V61.4195H232.391V48.5162ZM255.293 54.9684C255.178 53.1982 255.679 51.4427 256.712 50.0001C257.206 49.4148 257.83 48.9527 258.534 48.6504C259.238 48.3481 260.003 48.2139 260.768 48.2586C261.598 48.24 262.422 48.4036 263.182 48.7378C263.856 49.0462 264.444 49.5142 264.896 50.1014C265.371 50.734 265.716 51.4544 265.91 52.221C266.14 53.1184 266.252 54.042 266.242 54.9684C266.357 56.7398 265.852 58.4958 264.813 59.9356C264.32 60.5191 263.697 60.9801 262.995 61.2823C262.293 61.5845 261.531 61.7197 260.768 61.6771C259.931 61.697 259.1 61.5334 258.334 61.1979C257.662 60.8912 257.076 60.4227 256.628 59.8343C256.159 59.2 255.818 58.4799 255.625 57.7147C255.394 56.8178 255.283 55.8944 255.293 54.9684ZM257.947 54.9684C257.942 55.5713 257.998 56.1732 258.112 56.7652C258.204 57.2594 258.376 57.7354 258.62 58.1749C258.83 58.5507 259.131 58.8678 259.495 59.0974C259.879 59.3258 260.321 59.4409 260.768 59.4293C261.175 59.4459 261.581 59.3581 261.945 59.1742C262.31 58.9903 262.621 58.7165 262.85 58.3785C263.424 57.3383 263.68 56.1527 263.587 54.9684C263.591 54.3809 263.538 53.7943 263.431 53.2167C263.342 52.7214 263.177 52.2428 262.942 51.7979C262.74 51.4124 262.441 51.0854 262.076 50.8484C261.519 50.5309 260.865 50.4305 260.239 50.5666C259.612 50.7027 259.059 51.0655 258.684 51.5854C258.116 52.6181 257.86 53.7932 257.947 54.9684Z" fill="#C5C9CE"/>
</svg>
