<?xml version="1.0" standalone="no"?>
<!DOCTYPE svg PUBLIC "-//W3C//DTD SVG 20010904//EN"
 "http://www.w3.org/TR/2001/REC-SVG-20010904/DTD/svg10.dtd">
<svg version="1.0" xmlns="http://www.w3.org/2000/svg"
 width="700.000000pt" height="700.000000pt" viewBox="0 0 700.000000 700.000000"
 preserveAspectRatio="xMidYMid meet">
<metadata>
Created by potrace 1.11, written by Peter Selinger 2001-2013
</metadata>
<g transform="translate(0.000000,700.000000) scale(0.100000,-0.100000)"
fill="#000000" stroke="none">
<path d="M4647 4522 l-1267 -1267 -483 483 -482 482 -303 -303 -302 -302 785
-785 784 -784 1570 1569 1570 1570 -302 302 -303 302 -1267 -1267z"/>
<path d="M1649 2618 c-19 -18 -77 -69 -129 -112 -52 -44 -99 -84 -105 -90 -5
-6 -39 -36 -75 -66 -36 -30 -70 -59 -76 -65 -6 -5 -33 -28 -59 -50 -27 -22
-53 -45 -59 -50 -6 -6 -90 -78 -186 -160 -96 -83 -180 -154 -186 -160 -6 -5
-35 -30 -65 -55 -29 -25 -74 -63 -100 -85 -25 -22 -70 -61 -100 -86 -54 -46
-173 -149 -284 -244 -32 -27 -69 -59 -82 -70 -14 -11 -46 -39 -72 -62 -25 -24
-49 -43 -53 -43 -5 0 -8 -4 -8 -9 0 -5 1530 -8 3490 -8 1919 0 3490 2 3489 6
0 3 -59 56 -130 116 -72 61 -149 126 -172 146 -23 20 -91 78 -152 130 -60 51
-123 105 -140 120 -16 15 -68 60 -115 99 -47 40 -96 82 -110 94 -14 11 -72 62
-130 111 -58 50 -110 95 -116 100 -6 6 -146 126 -312 268 l-301 257 -543 0
-543 0 -118 -118 -118 -117 544 -5 c465 -4 546 -7 559 -20 8 -8 43 -40 78 -70
36 -30 103 -89 150 -130 47 -41 99 -87 115 -101 17 -14 55 -48 85 -75 31 -27
87 -76 125 -109 83 -72 158 -138 165 -145 3 -3 53 -47 113 -98 59 -52 107 -94
107 -95 0 -1 -1138 -2 -2530 -2 -1392 0 -2530 1 -2530 2 0 1 48 44 107 95 59
51 115 100 123 108 9 8 32 29 52 45 41 35 148 129 228 200 31 28 84 75 120
105 35 30 124 108 198 173 l134 117 421 0 422 0 -120 120 -120 120 -425 0
-426 0 -35 -32z"/>
</g>
</svg>
