<?xml version="1.0" encoding="iso-8859-1"?>
<!-- Generator: Adobe Illustrator 16.0.3, SVG Export Plug-In . SVG Version: 6.00 Build 0)  -->
<!DOCTYPE svg PUBLIC "-//W3C//DTD SVG 1.1//EN" "http://www.w3.org/Graphics/SVG/1.1/DTD/svg11.dtd">
<svg version="1.1" xmlns="http://www.w3.org/2000/svg" xmlns:xlink="http://www.w3.org/1999/xlink" x="0px" y="0px" width="16px"
	 height="16px" viewBox="0 0 16 16" style="enable-background:new 0 0 16 16;" xml:space="preserve">
<g id="action-execute-client-function">
	<path style="fill:#4E5D6F;" d="M8,0C3.582,0,0,3.582,0,8c0,4.418,3.582,8,8,8c4.418,0,8-3.582,8-8C16,3.582,12.418,0,8,0z
		 M10.443,3.494c-0.316-0.135-0.588-0.203-0.814-0.203c-0.563,0-0.996,0.806-1.207,1.693L10,5v1L8.297,6.016L7.35,11.04
		c-0.102,0.574-0.377,1.048-0.826,1.42s-0.975,0.56-1.576,0.563l-0.311-0.936c0.277-0.06,0.527-0.193,0.75-0.4
		c0.223-0.206,0.359-0.441,0.41-0.704l0.939-4.98L6,6V5l0.875-0.016C7.277,3.335,8.27,2.026,9.699,2.026
		c0.406,0,0.752,0.081,1.037,0.242L10.443,3.494z"/>
</g>
<g id="Layer_1">
</g>
</svg>
