<?xml version="1.0" encoding="iso-8859-1"?>
<!-- Generator: Adobe Illustrator 16.0.3, SVG Export Plug-In . SVG Version: 6.00 Build 0)  -->
<!DOCTYPE svg PUBLIC "-//W3C//DTD SVG 1.1//EN" "http://www.w3.org/Graphics/SVG/1.1/DTD/svg11.dtd">
<svg version="1.1" xmlns="http://www.w3.org/2000/svg" xmlns:xlink="http://www.w3.org/1999/xlink" x="0px" y="0px" width="16px"
	 height="16px" viewBox="0 0 16 16" style="enable-background:new 0 0 16 16;" xml:space="preserve">
<g id="select_edit_content">
	<g>
		<rect x="3" y="4" style="fill:#4E5D6F;" width="10" height="2"/>
		<rect x="3" y="7" style="fill:#4E5D6F;" width="10" height="2"/>
		<rect x="3" y="10" style="fill:#4E5D6F;" width="6" height="2"/>
		<g style="opacity:0.5;">
			<rect x="11" y="14" style="fill:#4E5D6F;" width="2" height="2"/>
			<rect x="5" y="14" style="fill:#4E5D6F;" width="2" height="2"/>
			<rect x="8" y="14" style="fill:#4E5D6F;" width="2" height="2"/>
			<rect y="14" style="fill:#4E5D6F;" width="4" height="2"/>
			<rect y="5" style="fill:#4E5D6F;" width="2" height="2"/>
			<rect y="8" style="fill:#4E5D6F;" width="2" height="2"/>
			<rect style="fill:#4E5D6F;" width="2" height="4"/>
			<rect y="11" style="fill:#4E5D6F;" width="2" height="2"/>
			<rect x="9" style="fill:#4E5D6F;" width="2" height="2"/>
			<rect x="3" style="fill:#4E5D6F;" width="2" height="2"/>
			<rect x="6" style="fill:#4E5D6F;" width="2" height="2"/>
			<rect x="12" style="fill:#4E5D6F;" width="4" height="2"/>
			<rect x="14" y="6" style="fill:#4E5D6F;" width="2" height="2"/>
			<rect x="14" y="3" style="fill:#4E5D6F;" width="2" height="2"/>
			<rect x="14" y="9" style="fill:#4E5D6F;" width="2" height="2"/>
			<rect x="14" y="12" style="fill:#4E5D6F;" width="2" height="4"/>
		</g>
	</g>
</g>
<g id="Layer_1">
</g>
</svg>
