<?xml version="1.0" encoding="iso-8859-1"?>
<!-- Generator: Adobe Illustrator 16.0.3, SVG Export Plug-In . SVG Version: 6.00 Build 0)  -->
<!DOCTYPE svg PUBLIC "-//W3C//DTD SVG 1.1//EN" "http://www.w3.org/Graphics/SVG/1.1/DTD/svg11.dtd">
<svg version="1.1" xmlns="http://www.w3.org/2000/svg" xmlns:xlink="http://www.w3.org/1999/xlink" x="0px" y="0px" width="16px"
	 height="16px" viewBox="0 0 16 16" style="enable-background:new 0 0 16 16;" xml:space="preserve">
<g id="switch_to_main_win">
	<g>
		<path style="opacity:0.5;fill:#4E5D6F;" d="M15,0H1C0.448,0,0,0.447,0,1v14c0,0.553,0.448,1,1,1h14c0.553,0,1-0.447,1-1V1
			C16,0.447,15.553,0,15,0z M14,14H2V2h12V14z"/>
		<polygon style="fill:#4E5D6F;" points="9,3 9,4 11.293,4 8.646,6.646 9.354,7.354 12,4.707 12,7 13,7 13,4 13,3 		"/>
		<path style="fill:#4E5D6F;" d="M10,8v2H6V6h2V4H5C4.448,4,4,4.447,4,5v6c0,0.553,0.448,1,1,1h6c0.553,0,1-0.447,1-1V8H10z"/>
	</g>
</g>
<g id="Layer_1">
</g>
</svg>
