<?xml version="1.0" encoding="iso-8859-1"?>
<!-- Generator: Adobe Illustrator 16.0.3, SVG Export Plug-In . SVG Version: 6.00 Build 0)  -->
<!DOCTYPE svg PUBLIC "-//W3C//DTD SVG 1.1//EN" "http://www.w3.org/Graphics/SVG/1.1/DTD/svg11.dtd">
<svg version="1.1" xmlns="http://www.w3.org/2000/svg" xmlns:xlink="http://www.w3.org/1999/xlink" x="0px" y="0px" width="16px"
	 height="16px" viewBox="0 0 16 16" style="enable-background:new 0 0 16 16;" xml:space="preserve">
<g id="press">
	<g>
		<path style="fill:#4E5D6F;" d="M14,15v-2v-1.167C14,11.373,13.627,11,13.166,11h-0.332C12.373,11,12,11.373,12,11.833V11
			c0-0.553-0.447-1-1-1s-1,0.447-1,1c0-0.553-0.447-1-1-1c-0.552,0-1,0.447-1,1V6c0-0.553-0.448-1-1-1S6,5.447,6,6v7
			c0-0.553-0.448-1-1-1s-1,0.447-1,1v2H14z"/>
		<path style="fill:#4E5D6F;" d="M13,1H3C2.448,1,2,1.447,2,2v6c0,0.553,0.448,1,1,1h2V7H4V3h8v4H9v2h4c0.553,0,1-0.447,1-1V2
			C14,1.447,13.553,1,13,1z"/>
	</g>
</g>
<g id="Layer_1">
</g>
</svg>
