<?xml version="1.0" encoding="iso-8859-1"?>
<!-- Generator: Adobe Illustrator 16.0.3, SVG Export Plug-In . SVG Version: 6.00 Build 0)  -->
<!DOCTYPE svg PUBLIC "-//W3C//DTD SVG 1.1//EN" "http://www.w3.org/Graphics/SVG/1.1/DTD/svg11.dtd">
<svg version="1.1" xmlns="http://www.w3.org/2000/svg" xmlns:xlink="http://www.w3.org/1999/xlink" x="0px" y="0px" width="16px"
	 height="16px" viewBox="0 0 16 16" style="enable-background:new 0 0 16 16;" xml:space="preserve">
<g id="action-maximize-window">
	<polygon style="fill:#4E5D6F;" points="3,0 0,0 0,3 1,3 1,1 3,1 	"/>
	<polygon style="fill:#4E5D6F;" points="13,0 16,0 16,3 15,3 15,1 13,1 	"/>
	<polygon style="fill:#4E5D6F;" points="3,16 0,16 0,13 1,13 1,15 3,15 	"/>
	<polygon style="fill:#4E5D6F;" points="13,16 16,16 16,13 15,13 15,15 13,15 	"/>
	<path style="fill:#4E5D6F;" d="M2,2v12h12V2H2z M12,12H4V6h8V12z"/>
</g>
<g id="Layer_1">
</g>
</svg>
