<?xml version="1.0" encoding="utf-8"?>
<!-- Generator: Adobe Illustrator 22.1.0, SVG Export Plug-In . SVG Version: 6.00 Build 0)  -->
<svg version="1.1" id="Layer_1" xmlns="http://www.w3.org/2000/svg" xmlns:xlink="http://www.w3.org/1999/xlink" x="0px"
  y="0px" width="16px" height="16px" viewBox="0 0 16 16" style="enable-background:new 0 0 16 16;" xml:space="preserve">
<style type="text/css">
 .st0{opacity:0.5;fill:#4E5D6F;}
 .st1{fill:#4E5D6F;}
</style>
<path class="st0" d="M0,0v16h16V0H0z M14,14H2V2h12V14z"/>
<polygon class="st1" points="13,8 11,6 11,7 9,7 9,5 10,5 8,3 6,5 7,5 7,7 5,7 5,6 3,8 5,10 5,9 7,9 7,11 6,11 8,13 10,11 9,11 9,9
 11,9 11,10 "/>
</svg>