<?xml version="1.0" encoding="iso-8859-1"?>
<!-- Generator: Adobe Illustrator 16.0.3, SVG Export Plug-In . SVG Version: 6.00 Build 0)  -->
<!DOCTYPE svg PUBLIC "-//W3C//DTD SVG 1.1//EN" "http://www.w3.org/Graphics/SVG/1.1/DTD/svg11.dtd">
<svg version="1.1" xmlns="http://www.w3.org/2000/svg" xmlns:xlink="http://www.w3.org/1999/xlink" x="0px" y="0px" width="16px"
	 height="16px" viewBox="0 0 16 16" style="enable-background:new 0 0 16 16;" xml:space="preserve">
<g id="action-debug">
	<path style="fill:#4E5D6F;" d="M11.211,7.54c0.096,0.147,0.188,0.297,0.248,0.46H14v1l-2.4,0.005c0,0.834-0.295,1.8-0.771,2.41
		l1.767,1.546l-0.79,0.902l-1.861-1.628C9.383,12.597,8.718,12.813,8,12.813c-0.597,0-1.15-0.159-1.642-0.42l-2.464,2.464
		C5.095,15.578,6.497,16,8,16c4.418,0,8-3.582,8-8c0-1.503-0.422-2.904-1.144-4.106L11.211,7.54z"/>
	<path style="fill:#4E5D6F;" d="M2.703,13.984L13.984,2.703C12.519,1.049,10.384,0,8,0C3.582,0,0,3.582,0,8
		C0,10.384,1.049,12.519,2.703,13.984 M8,2.012c1.325,0,2.4,1.075,2.4,2.401H5.6C5.6,3.087,6.675,2.012,8,2.012 M2,8h2.515
		C4.554,7.89,4.7,7.794,4.749,7.69L2.205,5.464l0.79-0.903l2.438,2.132C6.086,6.027,6.993,5.612,8,5.612
		c0.22,0,0.433,0.025,0.641,0.063L4.464,9.852c-0.037-0.208-0.063-0.63-0.063-0.849L2,9.002V8z"/>
</g>
<g id="Layer_1">
</g>
</svg>
