<?xml version="1.0" encoding="iso-8859-1"?>
<!-- Generator: Adobe Illustrator 16.0.3, SVG Export Plug-In . SVG Version: 6.00 Build 0)  -->
<!DOCTYPE svg PUBLIC "-//W3C//DTD SVG 1.1//EN" "http://www.w3.org/Graphics/SVG/1.1/DTD/svg11.dtd">
<svg version="1.1" xmlns="http://www.w3.org/2000/svg" xmlns:xlink="http://www.w3.org/1999/xlink" x="0px" y="0px" width="16px"
	 height="16px" viewBox="0 0 16 16" style="enable-background:new 0 0 16 16;" xml:space="preserve">
<g id="action-navigate-to">
	
		<rect x="7.5" y="5.172" transform="matrix(0.7071 0.7071 -0.7071 0.7071 8 -3.3137)" style="fill:#4E5D6F;" width="1" height="5.657"/>
	<path style="fill:#4E5D6F;" d="M14.412,2.419l-0.838-0.838c-0.777-0.778-2.051-0.778-2.828,0L7.317,5.016
		C6.835,5.498,6.655,6.168,6.774,6.792C6.147,6.677,5.475,6.858,4.993,7.341l-3.41,3.41c-0.778,0.777-0.773,2.046,0.011,2.817
		l0.874,0.86c0.784,0.771,2.059,0.765,2.834-0.017l3.363-3.398c0.481-0.485,0.662-1.161,0.543-1.789
		c0.642,0.13,1.336-0.052,1.828-0.548l3.382-3.423C15.193,4.473,15.19,3.197,14.412,2.419z M12.842,4.826l-1.908,1.926
		c-0.029,0.029-0.061,0.053-0.017,0.007l-3.91,3.92c-0.149,0.149-0.229,0.217-0.309,0.283c-0.037,0.041-0.069,0.083-0.108,0.123
		l-1.539,1.551c-0.776,0.78-1.57,0.821-2.035,0.362C2.55,12.54,2.583,11.75,3.361,10.973l1.558-1.559
		c0.055-0.055,0.113-0.102,0.17-0.151c0.051-0.059,0.098-0.118,0.228-0.247L9.314,5.02c-0.072,0.072-0.071,0.07-0.07,0.069
		l1.928-1.934C11.949,2.377,12.535,2.542,12.994,3C13.451,3.459,13.617,4.046,12.842,4.826z"/>
</g>
<g id="Layer_1">
</g>
</svg>
