<?xml version="1.0" encoding="iso-8859-1"?>
<!-- Generator: Adobe Illustrator 16.0.3, SVG Export Plug-In . SVG Version: 6.00 Build 0)  -->
<!DOCTYPE svg PUBLIC "-//W3C//DTD SVG 1.1//EN" "http://www.w3.org/Graphics/SVG/1.1/DTD/svg11.dtd">
<svg version="1.1" xmlns="http://www.w3.org/2000/svg" xmlns:xlink="http://www.w3.org/1999/xlink" x="0px" y="0px" width="16px"
	 height="16px" viewBox="0 0 16 16" style="enable-background:new 0 0 16 16;" xml:space="preserve">
<g id="switch_in_frame">
	<g>
		<path style="fill:#4E5D6F;" d="M15,0H1C0.448,0,0,0.447,0,1v14c0,0.553,0.448,1,1,1h14c0.553,0,1-0.447,1-1V1
			C16,0.447,15.553,0,15,0z M14,14H2V2h12V14z"/>
		<rect x="8" y="4" style="fill:#4E5D6F;" width="1" height="3"/>
		<rect x="8" y="7" style="fill:#4E5D6F;" width="4" height="1"/>
		<line style="fill:none;stroke:#4E5D6F;stroke-miterlimit:10;" x1="9" y1="7" x2="12" y2="4"/>
		<path style="opacity:0.5;fill:#4E5D6F;" d="M10,10H6V6h1V4H5C4.448,4,4,4.447,4,5v6c0,0.553,0.448,1,1,1h6c0.553,0,1-0.447,1-1V9
			h-2V10z"/>
		<polygon style="fill:#4E5D6F;" points="12.354,4.354 11.646,3.646 9,6.293 9,4 8,4 8,7 8,8 12,8 12,7 9.707,7 		"/>
	</g>
</g>
<g id="Layer_1">
</g>
</svg>
