<?xml version="1.0" encoding="utf-8"?>
<!-- Generator: Adobe Illustrator 16.0.3, SVG Export Plug-In . SVG Version: 6.00 Build 0)  -->
<!DOCTYPE svg PUBLIC "-//W3C//DTD SVG 1.1//EN" "http://www.w3.org/Graphics/SVG/1.1/DTD/svg11.dtd">
<svg version="1.1" xmlns="http://www.w3.org/2000/svg" xmlns:xlink="http://www.w3.org/1999/xlink" x="0px" y="0px" width="16px"
	 height="16px" viewBox="0 0 16 16" enable-background="new 0 0 16 16" xml:space="preserve">
<g id="Layer_17">
	<path fill-rule="evenodd" clip-rule="evenodd" fill="#4e5d6f" d="M11,4c-0.842,0-1.62,0.263-2.265,0.707
		c0.446,0.506,0.785,1.1,0.999,1.757C10.08,6.178,10.517,6,11,6c1.104,0,2,0.896,2,2s-0.896,2-2,2c-0.483,0-0.92-0.179-1.266-0.463
		c-0.214,0.656-0.553,1.25-0.999,1.756C9.38,11.737,10.158,12,11,12c2.209,0,4-1.791,4-4S13.209,4,11,4z"/>
	<circle fill-rule="evenodd" clip-rule="evenodd" fill="#4e5d6f" cx="5" cy="8" r="4"/>
</g>
</svg>
