<?xml version="1.0" encoding="iso-8859-1"?>
<!-- Generator: Adobe Illustrator 16.0.3, SVG Export Plug-In . SVG Version: 6.00 Build 0)  -->
<!DOCTYPE svg PUBLIC "-//W3C//DTD SVG 1.1//EN" "http://www.w3.org/Graphics/SVG/1.1/DTD/svg11.dtd">
<svg version="1.1" id="Layer_1" xmlns="http://www.w3.org/2000/svg" xmlns:xlink="http://www.w3.org/1999/xlink" x="0px" y="0px"
	 width="16px" height="16px" viewBox="0 0 16 16" style="enable-background:new 0 0 16 16;" xml:space="preserve">
<style type="text/css">
<![CDATA[
	.st0{fill:#4E5D6F;}
]]>
</style>
<path class="st0" d="M13,4h-1V3c-0.277-0.58-1.135-1-2-1H6C5.135,2,4.277,2.42,4,3v1H3C1.9,4,1,4.9,1,6v7c0,1.1,0.9,2,2,2h10
	c1.1,0,2-0.9,2-2V6C15,4.9,14.1,4,13,4z M8,13c-2.209,0-4-1.791-4-4s1.791-4,4-4s4,1.791,4,4S10.209,13,8,13z"/>
<circle class="st0" cx="8" cy="9" r="3"/>
</svg>
